<?xml version="1.0" encoding="UTF-8" standalone="no"?><svg xmlns="http://www.w3.org/2000/svg" xmlns:xlink="http://www.w3.org/1999/xlink" contentScriptType="application/ecmascript" contentStyleType="text/css" height="99px" preserveAspectRatio="none" style="width:187px;height:99px;" version="1.1" viewBox="0 0 187 99" width="187px" zoomAndPan="magnify"><defs><filter height="300%" id="f1pk19lxf1mjv8" width="300%" x="-1" y="-1"><feGaussianBlur result="blurOut" stdDeviation="2.0"/><feColorMatrix in="blurOut" result="blurOut2" type="matrix" values="0 0 0 0 0 0 0 0 0 0 0 0 0 0 0 0 0 0 .4 0"/><feOffset dx="4.0" dy="4.0" in="blurOut2" result="blurOut3"/><feBlend in="SourceGraphic" in2="blurOut3" mode="normal"/></filter></defs><g><!--MD5=[2b8367ee8a196632b51868e08daef08d]
class Auth--><rect codeLine="9" fill="#FEFECE" filter="url(#f1pk19lxf1mjv8)" height="73.6094" id="Auth" style="stroke: #A80036; stroke-width: 1.5;" width="161" x="7" y="7"/><ellipse cx="70.25" cy="23" fill="#ADD1B2" rx="11" ry="11" style="stroke: #A80036; stroke-width: 1.0;"/><path d="M72.5938,18.6719 C71.6563,18.2344 71.0625,18.0938 70.1875,18.0938 C67.5625,18.0938 65.5625,20.1719 65.5625,22.8906 L65.5625,24.0156 C65.5625,26.5938 67.6719,28.4844 70.5625,28.4844 C71.7813,28.4844 72.9375,28.1875 73.6875,27.6406 C74.2656,27.2344 74.5938,26.7813 74.5938,26.3906 C74.5938,25.9375 74.2031,25.5469 73.7344,25.5469 C73.5156,25.5469 73.3125,25.625 73.125,25.8125 C72.6719,26.2969 72.6719,26.2969 72.4844,26.3906 C72.0625,26.6563 71.375,26.7813 70.6094,26.7813 C68.5625,26.7813 67.2656,25.6875 67.2656,23.9844 L67.2656,22.8906 C67.2656,21.1094 68.5156,19.7969 70.25,19.7969 C70.8281,19.7969 71.4375,19.9531 71.9063,20.2031 C72.3906,20.4844 72.5625,20.7031 72.6563,21.1094 C72.7188,21.5156 72.75,21.6406 72.8906,21.7656 C73.0313,21.9063 73.2656,22.0156 73.4844,22.0156 C73.75,22.0156 74.0156,21.875 74.1875,21.6563 C74.2969,21.5 74.3281,21.3125 74.3281,20.8906 L74.3281,19.4688 C74.3281,19.0313 74.3125,18.9063 74.2188,18.75 C74.0625,18.4844 73.7813,18.3438 73.4844,18.3438 C73.1875,18.3438 72.9844,18.4375 72.7656,18.75 L72.5938,18.6719 Z "/><text fill="#000000" font-family="sans-serif" font-size="12" lengthAdjust="spacingAndGlyphs" textLength="26" x="90.75" y="27.1543">Auth</text><line style="stroke: #A80036; stroke-width: 1.5;" x1="8" x2="167" y1="39" y2="39"/><ellipse cx="18" cy="50" fill="none" rx="3" ry="3" style="stroke: #038048; stroke-width: 1.0;"/><a href="Parameters" target="_top" title="Parameters" xlink:actuate="onRequest" xlink:href="Parameters" xlink:show="new" xlink:title="Parameters" xlink:type="simple"><text fill="#0000FF" font-family="sans-serif" font-size="11" lengthAdjust="spacingAndGlyphs" text-decoration="underline" textLength="65" x="27" y="53.2104">Parameters</text></a><text fill="#000000" font-family="sans-serif" font-size="11" lengthAdjust="spacingAndGlyphs" textLength="66" x="96" y="53.2104">parameters</text><line style="stroke: #A80036; stroke-width: 1.5;" x1="8" x2="167" y1="59.8047" y2="59.8047"/><ellipse cx="18" cy="70.8047" fill="#84BE84" rx="3" ry="3" style="stroke: #038048; stroke-width: 1.0;"/><text fill="#000000" font-family="sans-serif" font-size="11" font-weight="bold" lengthAdjust="spacingAndGlyphs" textLength="105" x="27" y="74.0151">__constructor__</text><text fill="#000000" font-family="sans-serif" font-size="11" lengthAdjust="spacingAndGlyphs" textLength="8" x="132" y="74.0151">()</text><!--MD5=[76b8cc79c651570aa0b81d277cc6d870]
@startuml
' - - for auto-render install: https://marketplace.visualstudio.com/items?itemName=jebbs.plantuml
' - - options - -



' - - classes - -


class Auth {
    ' - - inheritance - -

    ' - - usingFor - -

    ' - - vars - -
	+[[Parameters]] parameters

    ' - - methods - -
	+**__constructor__**()

}
' - - inheritance / usingFor - -
@enduml

@startuml





class Auth {


	+[[Parameters]] parameters

	+**__constructor__**()

}
@enduml

PlantUML version 1.2020.16beta7(Unknown compile time)
(GPL source distribution)
Java Runtime: Java(TM) SE Runtime Environment
JVM: Java HotSpot(TM) 64-Bit Server VM
Default Encoding: UTF-8
Language: en
Country: US
--></g></svg>