<?xml version="1.0" encoding="UTF-8" standalone="no"?><svg xmlns="http://www.w3.org/2000/svg" xmlns:xlink="http://www.w3.org/1999/xlink" contentScriptType="application/ecmascript" contentStyleType="text/css" height="353px" preserveAspectRatio="none" style="width:210px;height:353px;" version="1.1" viewBox="0 0 210 353" width="210px" zoomAndPan="magnify"><defs><filter height="300%" id="f1fd9wkre55dnp" width="300%" x="-1" y="-1"><feGaussianBlur result="blurOut" stdDeviation="2.0"/><feColorMatrix in="blurOut" result="blurOut2" type="matrix" values="0 0 0 0 0 0 0 0 0 0 0 0 0 0 0 0 0 0 .4 0"/><feOffset dx="4.0" dy="4.0" in="blurOut2" result="blurOut3"/><feBlend in="SourceGraphic" in2="blurOut3" mode="normal"/></filter></defs><g><!--MD5=[83b6a6fba1b9d91a8c338342808d9eb9]
class Liquidator--><rect codeLine="9" fill="#FEFECE" filter="url(#f1fd9wkre55dnp)" height="201.6563" id="Liquidator" style="stroke: #A80036; stroke-width: 1.5;" width="184" x="7" y="7"/><ellipse cx="65.25" cy="23" fill="#ADD1B2" rx="11" ry="11" style="stroke: #A80036; stroke-width: 1.0;"/><path d="M67.5938,18.6719 C66.6563,18.2344 66.0625,18.0938 65.1875,18.0938 C62.5625,18.0938 60.5625,20.1719 60.5625,22.8906 L60.5625,24.0156 C60.5625,26.5938 62.6719,28.4844 65.5625,28.4844 C66.7813,28.4844 67.9375,28.1875 68.6875,27.6406 C69.2656,27.2344 69.5938,26.7813 69.5938,26.3906 C69.5938,25.9375 69.2031,25.5469 68.7344,25.5469 C68.5156,25.5469 68.3125,25.625 68.125,25.8125 C67.6719,26.2969 67.6719,26.2969 67.4844,26.3906 C67.0625,26.6563 66.375,26.7813 65.6094,26.7813 C63.5625,26.7813 62.2656,25.6875 62.2656,23.9844 L62.2656,22.8906 C62.2656,21.1094 63.5156,19.7969 65.25,19.7969 C65.8281,19.7969 66.4375,19.9531 66.9063,20.2031 C67.3906,20.4844 67.5625,20.7031 67.6563,21.1094 C67.7188,21.5156 67.75,21.6406 67.8906,21.7656 C68.0313,21.9063 68.2656,22.0156 68.4844,22.0156 C68.75,22.0156 69.0156,21.875 69.1875,21.6563 C69.2969,21.5 69.3281,21.3125 69.3281,20.8906 L69.3281,19.4688 C69.3281,19.0313 69.3125,18.9063 69.2188,18.75 C69.0625,18.4844 68.7813,18.3438 68.4844,18.3438 C68.1875,18.3438 67.9844,18.4375 67.7656,18.75 L67.5938,18.6719 Z "/><text fill="#000000" font-family="sans-serif" font-size="12" lengthAdjust="spacingAndGlyphs" textLength="59" x="85.75" y="27.1543">Liquidator</text><line style="stroke: #A80036; stroke-width: 1.5;" x1="8" x2="190" y1="39" y2="39"/><text fill="#000000" font-family="sans-serif" font-size="11" font-style="italic" lengthAdjust="spacingAndGlyphs" textLength="83" x="27" y="53.2104">&#128218;SafeMath for</text><a href="uint" target="_top" title="uint" xlink:actuate="onRequest" xlink:href="uint" xlink:show="new" xlink:title="uint" xlink:type="simple"><text fill="#0000FF" font-family="sans-serif" font-size="11" font-style="italic" lengthAdjust="spacingAndGlyphs" text-decoration="underline" textLength="21" x="114" y="53.2104">uint</text></a><text fill="#000000" font-family="sans-serif" font-size="11" lengthAdjust="spacingAndGlyphs" textLength="0" x="31" y="66.0151"/><ellipse cx="18" cy="75.6094" fill="none" rx="3" ry="3" style="stroke: #038048; stroke-width: 1.0;"/><a href="Parameters" target="_top" title="Parameters" xlink:actuate="onRequest" xlink:href="Parameters" xlink:show="new" xlink:title="Parameters" xlink:type="simple"><text fill="#0000FF" font-family="sans-serif" font-size="11" lengthAdjust="spacingAndGlyphs" text-decoration="underline" textLength="65" x="27" y="78.8198">Parameters</text></a><text fill="#000000" font-family="sans-serif" font-size="11" lengthAdjust="spacingAndGlyphs" textLength="66" x="96" y="78.8198">parameters</text><ellipse cx="18" cy="88.4141" fill="none" rx="3" ry="3" style="stroke: #038048; stroke-width: 1.0;"/><a href="Vault" target="_top" title="Vault" xlink:actuate="onRequest" xlink:href="Vault" xlink:show="new" xlink:title="Vault" xlink:type="simple"><text fill="#0000FF" font-family="sans-serif" font-size="11" lengthAdjust="spacingAndGlyphs" text-decoration="underline" textLength="29" x="27" y="91.6245">Vault</text></a><text fill="#000000" font-family="sans-serif" font-size="11" lengthAdjust="spacingAndGlyphs" textLength="28" x="60" y="91.6245">vault</text><ellipse cx="18" cy="101.2188" fill="none" rx="3" ry="3" style="stroke: #038048; stroke-width: 1.0;"/><a href="OracleLike" target="_top" title="OracleLike" xlink:actuate="onRequest" xlink:href="OracleLike" xlink:show="new" xlink:title="OracleLike" xlink:type="simple"><text fill="#0000FF" font-family="sans-serif" font-size="11" lengthAdjust="spacingAndGlyphs" text-decoration="underline" textLength="60" x="27" y="104.4292">OracleLike</text></a><text fill="#000000" font-family="sans-serif" font-size="11" lengthAdjust="spacingAndGlyphs" textLength="83" x="91" y="104.4292">uniswapOracle</text><ellipse cx="18" cy="114.0234" fill="none" rx="3" ry="3" style="stroke: #038048; stroke-width: 1.0;"/><a href="address" target="_top" title="address" xlink:actuate="onRequest" xlink:href="address" xlink:show="new" xlink:title="address" xlink:type="simple"><text fill="#0000FF" font-family="sans-serif" font-size="11" lengthAdjust="spacingAndGlyphs" text-decoration="underline" textLength="45" x="27" y="117.2339">address</text></a><text fill="#000000" font-family="sans-serif" font-size="11" lengthAdjust="spacingAndGlyphs" textLength="23" x="76" y="117.2339">COL</text><ellipse cx="18" cy="126.8281" fill="none" rx="3" ry="3" style="stroke: #038048; stroke-width: 1.0;"/><a href="address" target="_top" title="address" xlink:actuate="onRequest" xlink:href="address" xlink:show="new" xlink:title="address" xlink:type="simple"><text fill="#0000FF" font-family="sans-serif" font-size="11" lengthAdjust="spacingAndGlyphs" text-decoration="underline" textLength="45" x="27" y="130.0386">address</text></a><text fill="#000000" font-family="sans-serif" font-size="11" lengthAdjust="spacingAndGlyphs" textLength="102" x="76" y="130.0386">liquidationSystem</text><line style="stroke: #A80036; stroke-width: 1.5;" x1="8" x2="190" y1="136.6328" y2="136.6328"/><ellipse cx="18" cy="147.6328" fill="#84BE84" rx="3" ry="3" style="stroke: #038048; stroke-width: 1.0;"/><text fill="#000000" font-family="sans-serif" font-size="11" font-weight="bold" lengthAdjust="spacingAndGlyphs" textLength="105" x="27" y="150.8433">__constructor__</text><text fill="#000000" font-family="sans-serif" font-size="11" lengthAdjust="spacingAndGlyphs" textLength="8" x="132" y="150.8433">()</text><ellipse cx="18" cy="160.4375" fill="#84BE84" rx="3" ry="3" style="stroke: #038048; stroke-width: 1.0;"/><text fill="#000000" font-family="sans-serif" font-size="11" lengthAdjust="spacingAndGlyphs" textLength="140" x="27" y="163.6479">&#128269;isLiquidatablePosition()</text><ellipse cx="18" cy="173.2422" fill="#84BE84" rx="3" ry="3" style="stroke: #038048; stroke-width: 1.0;"/><text fill="#000000" font-family="sans-serif" font-size="11" lengthAdjust="spacingAndGlyphs" textLength="98" x="27" y="176.4526">&#128269;isSafePosition()</text><ellipse cx="18" cy="186.0469" fill="#84BE84" rx="3" ry="3" style="stroke: #038048; stroke-width: 1.0;"/><text fill="#000000" font-family="sans-serif" font-size="11" lengthAdjust="spacingAndGlyphs" textLength="158" x="27" y="189.2573">&#128269;getCollateralizationRatio()</text><ellipse cx="18" cy="198.8516" fill="#84BE84" rx="3" ry="3" style="stroke: #038048; stroke-width: 1.0;"/><text fill="#000000" font-family="sans-serif" font-size="11" lengthAdjust="spacingAndGlyphs" textLength="57" x="27" y="202.062">liquidate()</text><!--MD5=[11730a402df8153eb5160cb7d4f37d92]
class SafeMath--><rect fill="#FEFECE" filter="url(#f1fd9wkre55dnp)" height="48" id="SafeMath" style="stroke: #A80036; stroke-width: 1.5;" width="87" x="55.5" y="286"/><ellipse cx="70.5" cy="302" fill="#ADD1B2" rx="11" ry="11" style="stroke: #A80036; stroke-width: 1.0;"/><path d="M72.8438,297.6719 C71.9063,297.2344 71.3125,297.0938 70.4375,297.0938 C67.8125,297.0938 65.8125,299.1719 65.8125,301.8906 L65.8125,303.0156 C65.8125,305.5938 67.9219,307.4844 70.8125,307.4844 C72.0313,307.4844 73.1875,307.1875 73.9375,306.6406 C74.5156,306.2344 74.8438,305.7813 74.8438,305.3906 C74.8438,304.9375 74.4531,304.5469 73.9844,304.5469 C73.7656,304.5469 73.5625,304.625 73.375,304.8125 C72.9219,305.2969 72.9219,305.2969 72.7344,305.3906 C72.3125,305.6563 71.625,305.7813 70.8594,305.7813 C68.8125,305.7813 67.5156,304.6875 67.5156,302.9844 L67.5156,301.8906 C67.5156,300.1094 68.7656,298.7969 70.5,298.7969 C71.0781,298.7969 71.6875,298.9531 72.1563,299.2031 C72.6406,299.4844 72.8125,299.7031 72.9063,300.1094 C72.9688,300.5156 73,300.6406 73.1406,300.7656 C73.2813,300.9063 73.5156,301.0156 73.7344,301.0156 C74,301.0156 74.2656,300.875 74.4375,300.6563 C74.5469,300.5 74.5781,300.3125 74.5781,299.8906 L74.5781,298.4688 C74.5781,298.0313 74.5625,297.9063 74.4688,297.75 C74.3125,297.4844 74.0313,297.3438 73.7344,297.3438 C73.4375,297.3438 73.2344,297.4375 73.0156,297.75 L72.8438,297.6719 Z "/><text fill="#000000" font-family="sans-serif" font-size="12" lengthAdjust="spacingAndGlyphs" textLength="55" x="84.5" y="306.1543">SafeMath</text><line style="stroke: #A80036; stroke-width: 1.5;" x1="56.5" x2="141.5" y1="318" y2="318"/><line style="stroke: #A80036; stroke-width: 1.5;" x1="56.5" x2="141.5" y1="326" y2="326"/><!--MD5=[6045587098169b0e0f7728d40de75f1a]
link Liquidator to SafeMath--><path codeLine="31" d="M99,209.293 C99,229.105 99,248.9018 99,265.5725 " fill="none" id="Liquidator-&gt;SafeMath" style="stroke: #556B2F; stroke-width: 1.0; stroke-dasharray: 7.0,7.0;"/><polygon fill="none" points="106.0001,265.7496,99,285.7496,92.0001,265.7496,106.0001,265.7496" style="stroke: #556B2F; stroke-width: 1.0;"/><text fill="#000000" font-family="sans-serif" font-size="13" font-style="italic" lengthAdjust="spacingAndGlyphs" textLength="47" x="100" y="252.0669">for uint</text><!--MD5=[c8e0ed49305241bd398ad4a9808d6120]
@startuml
' - - for auto-render install: https://marketplace.visualstudio.com/items?itemName=jebbs.plantuml
' - - options - -



' - - classes - -


class Liquidator {
    ' - - inheritance - -

    ' - - usingFor - -
	{abstract}ðŸ“šSafeMath for [[uint]]

    ' - - vars - -
	+[[Parameters]] parameters
	+[[Vault]] vault
	+[[OracleLike]] uniswapOracle
	+[[address]] COL
	+[[address]] liquidationSystem

    ' - - methods - -
	+**__constructor__**()
	+ðŸ”isLiquidatablePosition()
	+ðŸ”isSafePosition()
	+ðŸ”getCollateralizationRatio()
	+liquidate()

}
' - - inheritance / usingFor - -
Liquidator ..[#DarkOliveGreen]|> SafeMath : //for uint//
@enduml

@startuml





class Liquidator {

	{abstract}ðŸ“šSafeMath for [[uint]]

	+[[Parameters]] parameters
	+[[Vault]] vault
	+[[OracleLike]] uniswapOracle
	+[[address]] COL
	+[[address]] liquidationSystem

	+**__constructor__**()
	+ðŸ”isLiquidatablePosition()
	+ðŸ”isSafePosition()
	+ðŸ”getCollateralizationRatio()
	+liquidate()

}
Liquidator ..[#DarkOliveGreen]|> SafeMath : //for uint//
@enduml

PlantUML version 1.2020.16beta7(Unknown compile time)
(GPL source distribution)
Java Runtime: Java(TM) SE Runtime Environment
JVM: Java HotSpot(TM) 64-Bit Server VM
Default Encoding: UTF-8
Language: en
Country: US
--></g></svg>