<?xml version="1.0" encoding="UTF-8" standalone="no"?><svg xmlns="http://www.w3.org/2000/svg" xmlns:xlink="http://www.w3.org/1999/xlink" contentScriptType="application/ecmascript" contentStyleType="text/css" height="99px" preserveAspectRatio="none" style="width:140px;height:99px;" version="1.1" viewBox="0 0 140 99" width="140px" zoomAndPan="magnify"><defs><filter height="300%" id="f15y7s2licjlh3" width="300%" x="-1" y="-1"><feGaussianBlur result="blurOut" stdDeviation="2.0"/><feColorMatrix in="blurOut" result="blurOut2" type="matrix" values="0 0 0 0 0 0 0 0 0 0 0 0 0 0 0 0 0 0 .4 0"/><feOffset dx="4.0" dy="4.0" in="blurOut2" result="blurOut3"/><feBlend in="SourceGraphic" in2="blurOut3" mode="normal"/></filter></defs><g><!--MD5=[db86c9cb2502156e5e86846d0a16676c]
class OracleLike--><rect codeLine="9" fill="#FEFECE" filter="url(#f15y7s2licjlh3)" height="73.6094" id="OracleLike" style="stroke: #A80036; stroke-width: 1.5;" width="114" x="7" y="7"/><ellipse cx="31" cy="23" fill="#B4A7E5" rx="11" ry="11" style="stroke: #A80036; stroke-width: 1.0;"/><path d="M31.9531,19.7813 L33.6719,19.7813 C34.0625,19.7813 34.25,19.75 34.375,19.6719 C34.6406,19.5156 34.7813,19.2344 34.7813,18.9375 C34.7813,18.6719 34.6719,18.4063 34.4375,18.2344 C34.2656,18.125 34.125,18.0938 33.6719,18.0938 L28.5313,18.0938 C28.0938,18.0938 27.9688,18.1094 27.8125,18.2031 C27.5625,18.3594 27.4063,18.6563 27.4063,18.9375 C27.4063,19.2188 27.5469,19.4688 27.7656,19.6406 C27.9219,19.75 28.1094,19.7813 28.5313,19.7813 L30.25,19.7813 L30.25,26.2969 L28.5313,26.2969 C28.0938,26.2969 27.9688,26.3125 27.8125,26.4219 C27.5625,26.5781 27.4063,26.8594 27.4063,27.1563 C27.4063,27.4063 27.5469,27.6719 27.7656,27.8281 C27.9219,27.9531 28.125,28 28.5313,28 L33.6719,28 C34.4219,28 34.7813,27.7188 34.7813,27.1563 C34.7813,26.875 34.6719,26.625 34.4375,26.4531 C34.2656,26.3281 34.125,26.2969 33.6719,26.2969 L31.9531,26.2969 L31.9531,19.7813 Z "/><text fill="#000000" font-family="sans-serif" font-size="12" font-style="italic" lengthAdjust="spacingAndGlyphs" textLength="62" x="47" y="27.1543">OracleLike</text><line style="stroke: #A80036; stroke-width: 1.5;" x1="8" x2="120" y1="39" y2="39"/><line style="stroke: #A80036; stroke-width: 1.5;" x1="8" x2="120" y1="47" y2="47"/><ellipse cx="18" cy="58" fill="#84BE84" rx="3" ry="3" style="stroke: #038048; stroke-width: 1.0;"/><text fill="#000000" font-family="sans-serif" font-size="11" lengthAdjust="spacingAndGlyphs" textLength="86" x="27" y="61.2104">&#128269;tokenToUsd()</text><ellipse cx="18" cy="70.8047" fill="#84BE84" rx="3" ry="3" style="stroke: #038048; stroke-width: 1.0;"/><text fill="#000000" font-family="sans-serif" font-size="11" lengthAdjust="spacingAndGlyphs" textLength="88" x="27" y="74.0151">&#128269;usdToToken()</text><!--MD5=[c3a75d55d4e6c9e82850e85200888e0f]
@startuml
' - - for auto-render install: https://marketplace.visualstudio.com/items?itemName=jebbs.plantuml
' - - options - -



' - - classes - -


interface OracleLike {
    ' - - inheritance - -

    ' - - usingFor - -

    ' - - vars - -

    ' - - methods - -
	+ðŸ”tokenToUsd()
	+ðŸ”usdToToken()

}
' - - inheritance / usingFor - -
@enduml

@startuml





interface OracleLike {



	+ðŸ”tokenToUsd()
	+ðŸ”usdToToken()

}
@enduml

PlantUML version 1.2020.16beta7(Unknown compile time)
(GPL source distribution)
Java Runtime: Java(TM) SE Runtime Environment
JVM: Java HotSpot(TM) 64-Bit Server VM
Default Encoding: UTF-8
Language: en
Country: US
--></g></svg>