<?xml version="1.0" encoding="UTF-8" standalone="no"?><svg xmlns="http://www.w3.org/2000/svg" xmlns:xlink="http://www.w3.org/1999/xlink" contentScriptType="application/ecmascript" contentStyleType="text/css" height="502px" preserveAspectRatio="none" style="width:252px;height:502px;" version="1.1" viewBox="0 0 252 502" width="252px" zoomAndPan="magnify"><defs><filter height="300%" id="f1op93a4vf3e7m" width="300%" x="-1" y="-1"><feGaussianBlur result="blurOut" stdDeviation="2.0"/><feColorMatrix in="blurOut" result="blurOut2" type="matrix" values="0 0 0 0 0 0 0 0 0 0 0 0 0 0 0 0 0 0 .4 0"/><feOffset dx="4.0" dy="4.0" in="blurOut2" result="blurOut3"/><feBlend in="SourceGraphic" in2="blurOut3" mode="normal"/></filter></defs><g><!--MD5=[56f671791a7bc69038cb91d87520b796]
class Parameters--><rect codeLine="9" fill="#FEFECE" filter="url(#f1op93a4vf3e7m)" height="368.1172" id="Parameters" style="stroke: #A80036; stroke-width: 1.5;" width="226" x="7" y="7"/><ellipse cx="81.75" cy="23" fill="#ADD1B2" rx="11" ry="11" style="stroke: #A80036; stroke-width: 1.0;"/><path d="M84.0938,18.6719 C83.1563,18.2344 82.5625,18.0938 81.6875,18.0938 C79.0625,18.0938 77.0625,20.1719 77.0625,22.8906 L77.0625,24.0156 C77.0625,26.5938 79.1719,28.4844 82.0625,28.4844 C83.2813,28.4844 84.4375,28.1875 85.1875,27.6406 C85.7656,27.2344 86.0938,26.7813 86.0938,26.3906 C86.0938,25.9375 85.7031,25.5469 85.2344,25.5469 C85.0156,25.5469 84.8125,25.625 84.625,25.8125 C84.1719,26.2969 84.1719,26.2969 83.9844,26.3906 C83.5625,26.6563 82.875,26.7813 82.1094,26.7813 C80.0625,26.7813 78.7656,25.6875 78.7656,23.9844 L78.7656,22.8906 C78.7656,21.1094 80.0156,19.7969 81.75,19.7969 C82.3281,19.7969 82.9375,19.9531 83.4063,20.2031 C83.8906,20.4844 84.0625,20.7031 84.1563,21.1094 C84.2188,21.5156 84.25,21.6406 84.3906,21.7656 C84.5313,21.9063 84.7656,22.0156 84.9844,22.0156 C85.25,22.0156 85.5156,21.875 85.6875,21.6563 C85.7969,21.5 85.8281,21.3125 85.8281,20.8906 L85.8281,19.4688 C85.8281,19.0313 85.8125,18.9063 85.7188,18.75 C85.5625,18.4844 85.2813,18.3438 84.9844,18.3438 C84.6875,18.3438 84.4844,18.4375 84.2656,18.75 L84.0938,18.6719 Z "/><text fill="#000000" font-family="sans-serif" font-size="12" lengthAdjust="spacingAndGlyphs" textLength="68" x="102.25" y="27.1543">Parameters</text><line style="stroke: #A80036; stroke-width: 1.5;" x1="8" x2="232" y1="39" y2="39"/><text fill="#000000" font-family="sans-serif" font-size="11" font-style="italic" lengthAdjust="spacingAndGlyphs" textLength="26" x="27" y="53.2104">Auth</text><text fill="#000000" font-family="sans-serif" font-size="11" lengthAdjust="spacingAndGlyphs" textLength="0" x="31" y="66.0151"/><text fill="#000000" font-family="sans-serif" font-size="11" lengthAdjust="spacingAndGlyphs" textLength="0" x="31" y="78.8198"/><ellipse cx="18" cy="88.4141" fill="none" rx="3" ry="3" style="stroke: #038048; stroke-width: 1.0;"/><a href="uint" target="_top" title="uint" xlink:actuate="onRequest" xlink:href="uint" xlink:show="new" xlink:title="uint" xlink:type="simple"><text fill="#0000FF" font-family="sans-serif" font-size="11" lengthAdjust="spacingAndGlyphs" text-decoration="underline" textLength="21" x="27" y="91.6245">uint</text></a><text fill="#000000" font-family="sans-serif" font-size="11" lengthAdjust="spacingAndGlyphs" textLength="82" x="52" y="91.6245">minColPercent</text><ellipse cx="18" cy="101.2188" fill="none" rx="3" ry="3" style="stroke: #038048; stroke-width: 1.0;"/><a href="uint" target="_top" title="uint" xlink:actuate="onRequest" xlink:href="uint" xlink:show="new" xlink:title="uint" xlink:type="simple"><text fill="#0000FF" font-family="sans-serif" font-size="11" lengthAdjust="spacingAndGlyphs" text-decoration="underline" textLength="21" x="27" y="104.4292">uint</text></a><text fill="#000000" font-family="sans-serif" font-size="11" lengthAdjust="spacingAndGlyphs" textLength="86" x="52" y="104.4292">maxColPercent</text><ellipse cx="18" cy="114.0234" fill="none" rx="3" ry="3" style="stroke: #038048; stroke-width: 1.0;"/><a href="mapping" target="_top" title="mapping" xlink:actuate="onRequest" xlink:href="mapping" xlink:show="new" xlink:title="mapping" xlink:type="simple"><text fill="#0000FF" font-family="sans-serif" font-size="11" lengthAdjust="spacingAndGlyphs" text-decoration="underline" textLength="84" x="27" y="117.2339">address=&gt;uint</text></a><text fill="#000000" font-family="sans-serif" font-size="11" lengthAdjust="spacingAndGlyphs" textLength="66" x="115" y="117.2339">stabilityFee</text><ellipse cx="18" cy="126.8281" fill="none" rx="3" ry="3" style="stroke: #038048; stroke-width: 1.0;"/><a href="mapping" target="_top" title="mapping" xlink:actuate="onRequest" xlink:href="mapping" xlink:show="new" xlink:title="mapping" xlink:type="simple"><text fill="#0000FF" font-family="sans-serif" font-size="11" lengthAdjust="spacingAndGlyphs" text-decoration="underline" textLength="84" x="27" y="130.0386">address=&gt;uint</text></a><text fill="#000000" font-family="sans-serif" font-size="11" lengthAdjust="spacingAndGlyphs" textLength="112" x="115" y="130.0386">initialCollateralRatio</text><ellipse cx="18" cy="139.6328" fill="none" rx="3" ry="3" style="stroke: #038048; stroke-width: 1.0;"/><a href="mapping" target="_top" title="mapping" xlink:actuate="onRequest" xlink:href="mapping" xlink:show="new" xlink:title="mapping" xlink:type="simple"><text fill="#0000FF" font-family="sans-serif" font-size="11" lengthAdjust="spacingAndGlyphs" text-decoration="underline" textLength="84" x="27" y="142.8433">address=&gt;uint</text></a><text fill="#000000" font-family="sans-serif" font-size="11" lengthAdjust="spacingAndGlyphs" textLength="86" x="115" y="142.8433">liquidationRatio</text><ellipse cx="18" cy="152.4375" fill="none" rx="3" ry="3" style="stroke: #038048; stroke-width: 1.0;"/><a href="mapping" target="_top" title="mapping" xlink:actuate="onRequest" xlink:href="mapping" xlink:show="new" xlink:title="mapping" xlink:type="simple"><text fill="#0000FF" font-family="sans-serif" font-size="11" lengthAdjust="spacingAndGlyphs" text-decoration="underline" textLength="84" x="27" y="155.6479">address=&gt;uint</text></a><text fill="#000000" font-family="sans-serif" font-size="11" lengthAdjust="spacingAndGlyphs" textLength="80" x="115" y="155.6479">liquidationFee</text><ellipse cx="18" cy="165.2422" fill="none" rx="3" ry="3" style="stroke: #038048; stroke-width: 1.0;"/><a href="mapping" target="_top" title="mapping" xlink:actuate="onRequest" xlink:href="mapping" xlink:show="new" xlink:title="mapping" xlink:type="simple"><text fill="#0000FF" font-family="sans-serif" font-size="11" lengthAdjust="spacingAndGlyphs" text-decoration="underline" textLength="84" x="27" y="168.4526">address=&gt;uint</text></a><text fill="#000000" font-family="sans-serif" font-size="11" lengthAdjust="spacingAndGlyphs" textLength="87" x="115" y="168.4526">tokenDebtLimit</text><ellipse cx="18" cy="178.0469" fill="none" rx="3" ry="3" style="stroke: #038048; stroke-width: 1.0;"/><a href="mapping" target="_top" title="mapping" xlink:actuate="onRequest" xlink:href="mapping" xlink:show="new" xlink:title="mapping" xlink:type="simple"><text fill="#0000FF" font-family="sans-serif" font-size="11" lengthAdjust="spacingAndGlyphs" text-decoration="underline" textLength="87" x="27" y="181.2573">address=&gt;bool</text></a><text fill="#000000" font-family="sans-serif" font-size="11" lengthAdjust="spacingAndGlyphs" textLength="86" x="118" y="181.2573">canModifyVault</text><ellipse cx="18" cy="190.8516" fill="none" rx="3" ry="3" style="stroke: #038048; stroke-width: 1.0;"/><a href="mapping" target="_top" title="mapping" xlink:actuate="onRequest" xlink:href="mapping" xlink:show="new" xlink:title="mapping" xlink:type="simple"><text fill="#0000FF" font-family="sans-serif" font-size="11" lengthAdjust="spacingAndGlyphs" text-decoration="underline" textLength="87" x="27" y="194.062">address=&gt;bool</text></a><text fill="#000000" font-family="sans-serif" font-size="11" lengthAdjust="spacingAndGlyphs" textLength="58" x="118" y="194.062">isManager</text><ellipse cx="18" cy="203.6563" fill="none" rx="3" ry="3" style="stroke: #038048; stroke-width: 1.0;"/><a href="mapping" target="_top" title="mapping" xlink:actuate="onRequest" xlink:href="mapping" xlink:show="new" xlink:title="mapping" xlink:type="simple"><text fill="#0000FF" font-family="sans-serif" font-size="11" lengthAdjust="spacingAndGlyphs" text-decoration="underline" textLength="63" x="27" y="206.8667">uint=&gt;bool</text></a><text fill="#000000" font-family="sans-serif" font-size="11" lengthAdjust="spacingAndGlyphs" textLength="121" x="94" y="206.8667">isOracleTypeEnabled</text><ellipse cx="18" cy="216.4609" fill="none" rx="3" ry="3" style="stroke: #038048; stroke-width: 1.0;"/><a href="address" target="_top" title="address" xlink:actuate="onRequest" xlink:href="address" xlink:show="new" xlink:title="address" xlink:type="simple"><text fill="#0000FF" font-family="sans-serif" font-size="11" lengthAdjust="spacingAndGlyphs" text-decoration="underline" textLength="45" x="27" y="219.6714">address</text></a><text fill="#000000" font-family="sans-serif" font-size="11" lengthAdjust="spacingAndGlyphs" textLength="28" x="76" y="219.6714">vault</text><line style="stroke: #A80036; stroke-width: 1.5;" x1="8" x2="232" y1="226.2656" y2="226.2656"/><ellipse cx="18" cy="237.2656" fill="#84BE84" rx="3" ry="3" style="stroke: #038048; stroke-width: 1.0;"/><text fill="#000000" font-family="sans-serif" font-size="11" font-weight="bold" lengthAdjust="spacingAndGlyphs" textLength="105" x="27" y="240.4761">__constructor__</text><text fill="#000000" font-family="sans-serif" font-size="11" lengthAdjust="spacingAndGlyphs" textLength="8" x="132" y="240.4761">()</text><ellipse cx="18" cy="250.0703" fill="#84BE84" rx="3" ry="3" style="stroke: #038048; stroke-width: 1.0;"/><text fill="#000000" font-family="sans-serif" font-size="11" lengthAdjust="spacingAndGlyphs" textLength="75" x="27" y="253.2808">setManager()</text><ellipse cx="18" cy="262.875" fill="#84BE84" rx="3" ry="3" style="stroke: #038048; stroke-width: 1.0;"/><text fill="#000000" font-family="sans-serif" font-size="11" lengthAdjust="spacingAndGlyphs" textLength="80" x="27" y="266.0854">setCollateral()</text><ellipse cx="18" cy="275.6797" fill="#84BE84" rx="3" ry="3" style="stroke: #038048; stroke-width: 1.0;"/><text fill="#000000" font-family="sans-serif" font-size="11" lengthAdjust="spacingAndGlyphs" textLength="138" x="27" y="278.8901">setInitialCollateralRatio()</text><ellipse cx="18" cy="288.4844" fill="#84BE84" rx="3" ry="3" style="stroke: #038048; stroke-width: 1.0;"/><text fill="#000000" font-family="sans-serif" font-size="11" lengthAdjust="spacingAndGlyphs" textLength="115" x="27" y="291.6948">setLiquidationRatio()</text><ellipse cx="18" cy="301.2891" fill="#84BE84" rx="3" ry="3" style="stroke: #038048; stroke-width: 1.0;"/><text fill="#000000" font-family="sans-serif" font-size="11" lengthAdjust="spacingAndGlyphs" textLength="95" x="27" y="304.4995">setVaultAccess()</text><ellipse cx="18" cy="314.0938" fill="#84BE84" rx="3" ry="3" style="stroke: #038048; stroke-width: 1.0;"/><text fill="#000000" font-family="sans-serif" font-size="11" lengthAdjust="spacingAndGlyphs" textLength="94" x="27" y="317.3042">setStabilityFee()</text><ellipse cx="18" cy="326.8984" fill="#84BE84" rx="3" ry="3" style="stroke: #038048; stroke-width: 1.0;"/><text fill="#000000" font-family="sans-serif" font-size="11" lengthAdjust="spacingAndGlyphs" textLength="109" x="27" y="330.1089">setLiquidationFee()</text><ellipse cx="18" cy="339.7031" fill="#84BE84" rx="3" ry="3" style="stroke: #038048; stroke-width: 1.0;"/><text fill="#000000" font-family="sans-serif" font-size="11" lengthAdjust="spacingAndGlyphs" textLength="101" x="27" y="342.9136">setColPartRange()</text><ellipse cx="18" cy="352.5078" fill="#84BE84" rx="3" ry="3" style="stroke: #038048; stroke-width: 1.0;"/><text fill="#000000" font-family="sans-serif" font-size="11" lengthAdjust="spacingAndGlyphs" textLength="92" x="27" y="355.7183">setOracleType()</text><ellipse cx="18" cy="365.3125" fill="#84BE84" rx="3" ry="3" style="stroke: #038048; stroke-width: 1.0;"/><text fill="#000000" font-family="sans-serif" font-size="11" lengthAdjust="spacingAndGlyphs" textLength="116" x="27" y="368.5229">setTokenDebtLimit()</text><!--MD5=[2b8367ee8a196632b51868e08daef08d]
class Auth--><rect fill="#FEFECE" filter="url(#f1op93a4vf3e7m)" height="48" id="Auth" style="stroke: #A80036; stroke-width: 1.5;" width="58" x="91" y="435"/><ellipse cx="106" cy="451" fill="#ADD1B2" rx="11" ry="11" style="stroke: #A80036; stroke-width: 1.0;"/><path d="M108.3438,446.6719 C107.4063,446.2344 106.8125,446.0938 105.9375,446.0938 C103.3125,446.0938 101.3125,448.1719 101.3125,450.8906 L101.3125,452.0156 C101.3125,454.5938 103.4219,456.4844 106.3125,456.4844 C107.5313,456.4844 108.6875,456.1875 109.4375,455.6406 C110.0156,455.2344 110.3438,454.7813 110.3438,454.3906 C110.3438,453.9375 109.9531,453.5469 109.4844,453.5469 C109.2656,453.5469 109.0625,453.625 108.875,453.8125 C108.4219,454.2969 108.4219,454.2969 108.2344,454.3906 C107.8125,454.6563 107.125,454.7813 106.3594,454.7813 C104.3125,454.7813 103.0156,453.6875 103.0156,451.9844 L103.0156,450.8906 C103.0156,449.1094 104.2656,447.7969 106,447.7969 C106.5781,447.7969 107.1875,447.9531 107.6563,448.2031 C108.1406,448.4844 108.3125,448.7031 108.4063,449.1094 C108.4688,449.5156 108.5,449.6406 108.6406,449.7656 C108.7813,449.9063 109.0156,450.0156 109.2344,450.0156 C109.5,450.0156 109.7656,449.875 109.9375,449.6563 C110.0469,449.5 110.0781,449.3125 110.0781,448.8906 L110.0781,447.4688 C110.0781,447.0313 110.0625,446.9063 109.9688,446.75 C109.8125,446.4844 109.5313,446.3438 109.2344,446.3438 C108.9375,446.3438 108.7344,446.4375 108.5156,446.75 L108.3438,446.6719 Z "/><text fill="#000000" font-family="sans-serif" font-size="12" lengthAdjust="spacingAndGlyphs" textLength="26" x="120" y="455.1543">Auth</text><line style="stroke: #A80036; stroke-width: 1.5;" x1="92" x2="148" y1="467" y2="467"/><line style="stroke: #A80036; stroke-width: 1.5;" x1="92" x2="148" y1="475" y2="475"/><!--MD5=[27f12cb88a782e057117cef4ab79cb15]
link Parameters to Auth--><path codeLine="43" d="M120,375.294 C120,389.6615 120,403.1107 120,414.8173 " fill="none" id="Parameters-&gt;Auth" style="stroke: #B8860B; stroke-width: 1.0;"/><polygon fill="none" points="127,414.9645,120,434.9645,113,414.9644,127,414.9645" style="stroke: #B8860B; stroke-width: 1.0;"/><!--MD5=[15c241500657bd494e5a1a651306469c]
@startuml
' - - for auto-render install: https://marketplace.visualstudio.com/items?itemName=jebbs.plantuml
' - - options - -



' - - classes - -


class Parameters {
    ' - - inheritance - -
	{abstract}Auth

    ' - - usingFor - -

    ' - - vars - -
	+[[uint]] minColPercent
	+[[uint]] maxColPercent
	+[[mapping address=>uint ]] stabilityFee
	+[[mapping address=>uint ]] initialCollateralRatio
	+[[mapping address=>uint ]] liquidationRatio
	+[[mapping address=>uint ]] liquidationFee
	+[[mapping address=>uint ]] tokenDebtLimit
	+[[mapping address=>bool ]] canModifyVault
	+[[mapping address=>bool ]] isManager
	+[[mapping uint=>bool ]] isOracleTypeEnabled
	+[[address]] vault

    ' - - methods - -
	+**__constructor__**()
	+setManager()
	+setCollateral()
	+setInitialCollateralRatio()
	+setLiquidationRatio()
	+setVaultAccess()
	+setStabilityFee()
	+setLiquidationFee()
	+setColPartRange()
	+setOracleType()
	+setTokenDebtLimit()

}
' - - inheritance / usingFor - -
Parameters - -[#DarkGoldenRod]|> Auth
@enduml

@startuml





class Parameters {
	{abstract}Auth


	+[[uint]] minColPercent
	+[[uint]] maxColPercent
	+[[mapping address=>uint ]] stabilityFee
	+[[mapping address=>uint ]] initialCollateralRatio
	+[[mapping address=>uint ]] liquidationRatio
	+[[mapping address=>uint ]] liquidationFee
	+[[mapping address=>uint ]] tokenDebtLimit
	+[[mapping address=>bool ]] canModifyVault
	+[[mapping address=>bool ]] isManager
	+[[mapping uint=>bool ]] isOracleTypeEnabled
	+[[address]] vault

	+**__constructor__**()
	+setManager()
	+setCollateral()
	+setInitialCollateralRatio()
	+setLiquidationRatio()
	+setVaultAccess()
	+setStabilityFee()
	+setLiquidationFee()
	+setColPartRange()
	+setOracleType()
	+setTokenDebtLimit()

}
Parameters - -[#DarkGoldenRod]|> Auth
@enduml

PlantUML version 1.2020.16beta7(Unknown compile time)
(GPL source distribution)
Java Runtime: Java(TM) SE Runtime Environment
JVM: Java HotSpot(TM) 64-Bit Server VM
Default Encoding: UTF-8
Language: en
Country: US
--></g></svg>