<?xml version="1.0" encoding="UTF-8" standalone="no"?><svg xmlns="http://www.w3.org/2000/svg" xmlns:xlink="http://www.w3.org/1999/xlink" contentScriptType="application/ecmascript" contentStyleType="text/css" height="353px" preserveAspectRatio="none" style="width:249px;height:353px;" version="1.1" viewBox="0 0 249 353" width="249px" zoomAndPan="magnify"><defs><filter height="300%" id="f1rlyufrpichy" width="300%" x="-1" y="-1"><feGaussianBlur result="blurOut" stdDeviation="2.0"/><feColorMatrix in="blurOut" result="blurOut2" type="matrix" values="0 0 0 0 0 0 0 0 0 0 0 0 0 0 0 0 0 0 .4 0"/><feOffset dx="4.0" dy="4.0" in="blurOut2" result="blurOut3"/><feBlend in="SourceGraphic" in2="blurOut3" mode="normal"/></filter></defs><g><!--MD5=[c9d87fe50a4d64b9cf33100cd9afc76b]
class UniswapOracle--><rect codeLine="9" fill="#FEFECE" filter="url(#f1rlyufrpichy)" height="201.6563" id="UniswapOracle" style="stroke: #A80036; stroke-width: 1.5;" width="223" x="7" y="7"/><ellipse cx="68.75" cy="23" fill="#ADD1B2" rx="11" ry="11" style="stroke: #A80036; stroke-width: 1.0;"/><path d="M71.0938,18.6719 C70.1563,18.2344 69.5625,18.0938 68.6875,18.0938 C66.0625,18.0938 64.0625,20.1719 64.0625,22.8906 L64.0625,24.0156 C64.0625,26.5938 66.1719,28.4844 69.0625,28.4844 C70.2813,28.4844 71.4375,28.1875 72.1875,27.6406 C72.7656,27.2344 73.0938,26.7813 73.0938,26.3906 C73.0938,25.9375 72.7031,25.5469 72.2344,25.5469 C72.0156,25.5469 71.8125,25.625 71.625,25.8125 C71.1719,26.2969 71.1719,26.2969 70.9844,26.3906 C70.5625,26.6563 69.875,26.7813 69.1094,26.7813 C67.0625,26.7813 65.7656,25.6875 65.7656,23.9844 L65.7656,22.8906 C65.7656,21.1094 67.0156,19.7969 68.75,19.7969 C69.3281,19.7969 69.9375,19.9531 70.4063,20.2031 C70.8906,20.4844 71.0625,20.7031 71.1563,21.1094 C71.2188,21.5156 71.25,21.6406 71.3906,21.7656 C71.5313,21.9063 71.7656,22.0156 71.9844,22.0156 C72.25,22.0156 72.5156,21.875 72.6875,21.6563 C72.7969,21.5 72.8281,21.3125 72.8281,20.8906 L72.8281,19.4688 C72.8281,19.0313 72.8125,18.9063 72.7188,18.75 C72.5625,18.4844 72.2813,18.3438 71.9844,18.3438 C71.6875,18.3438 71.4844,18.4375 71.2656,18.75 L71.0938,18.6719 Z "/><text fill="#000000" font-family="sans-serif" font-size="12" lengthAdjust="spacingAndGlyphs" textLength="91" x="89.25" y="27.1543">UniswapOracle</text><line style="stroke: #A80036; stroke-width: 1.5;" x1="8" x2="229" y1="39" y2="39"/><text fill="#000000" font-family="sans-serif" font-size="11" font-style="italic" lengthAdjust="spacingAndGlyphs" textLength="83" x="27" y="53.2104">&#128218;SafeMath for</text><a href="uint" target="_top" title="uint" xlink:actuate="onRequest" xlink:href="uint" xlink:show="new" xlink:title="uint" xlink:type="simple"><text fill="#0000FF" font-family="sans-serif" font-size="11" font-style="italic" lengthAdjust="spacingAndGlyphs" text-decoration="underline" textLength="21" x="114" y="53.2104">uint</text></a><text fill="#000000" font-family="sans-serif" font-size="11" lengthAdjust="spacingAndGlyphs" textLength="0" x="31" y="66.0151"/><ellipse cx="18" cy="75.6094" fill="none" rx="3" ry="3" style="stroke: #038048; stroke-width: 1.0;"/><a href="address" target="_top" title="address" xlink:actuate="onRequest" xlink:href="address" xlink:show="new" xlink:title="address" xlink:type="simple"><text fill="#0000FF" font-family="sans-serif" font-size="11" lengthAdjust="spacingAndGlyphs" text-decoration="underline" textLength="45" x="27" y="78.8198">address</text></a><text fill="#000000" font-family="sans-serif" font-size="11" lengthAdjust="spacingAndGlyphs" textLength="20" x="76" y="78.8198">DAI</text><ellipse cx="18" cy="88.4141" fill="none" rx="3" ry="3" style="stroke: #038048; stroke-width: 1.0;"/><a href="address" target="_top" title="address" xlink:actuate="onRequest" xlink:href="address" xlink:show="new" xlink:title="address" xlink:type="simple"><text fill="#0000FF" font-family="sans-serif" font-size="11" lengthAdjust="spacingAndGlyphs" text-decoration="underline" textLength="45" x="27" y="91.6245">address</text></a><text fill="#000000" font-family="sans-serif" font-size="11" lengthAdjust="spacingAndGlyphs" textLength="33" x="76" y="91.6245">USDC</text><ellipse cx="18" cy="101.2188" fill="none" rx="3" ry="3" style="stroke: #038048; stroke-width: 1.0;"/><a href="address" target="_top" title="address" xlink:actuate="onRequest" xlink:href="address" xlink:show="new" xlink:title="address" xlink:type="simple"><text fill="#0000FF" font-family="sans-serif" font-size="11" lengthAdjust="spacingAndGlyphs" text-decoration="underline" textLength="45" x="27" y="104.4292">address</text></a><text fill="#000000" font-family="sans-serif" font-size="11" lengthAdjust="spacingAndGlyphs" textLength="33" x="76" y="104.4292">WETH</text><ellipse cx="18" cy="114.0234" fill="none" rx="3" ry="3" style="stroke: #038048; stroke-width: 1.0;"/><a href="address" target="_top" title="address" xlink:actuate="onRequest" xlink:href="address" xlink:show="new" xlink:title="address" xlink:type="simple"><text fill="#0000FF" font-family="sans-serif" font-size="11" lengthAdjust="spacingAndGlyphs" text-decoration="underline" textLength="45" x="27" y="117.2339">address</text></a><text fill="#000000" font-family="sans-serif" font-size="11" lengthAdjust="spacingAndGlyphs" textLength="53" x="76" y="117.2339">DAIWETH</text><ellipse cx="18" cy="126.8281" fill="none" rx="3" ry="3" style="stroke: #038048; stroke-width: 1.0;"/><a href="address" target="_top" title="address" xlink:actuate="onRequest" xlink:href="address" xlink:show="new" xlink:title="address" xlink:type="simple"><text fill="#0000FF" font-family="sans-serif" font-size="11" lengthAdjust="spacingAndGlyphs" text-decoration="underline" textLength="45" x="27" y="130.0386">address</text></a><text fill="#000000" font-family="sans-serif" font-size="11" lengthAdjust="spacingAndGlyphs" textLength="66" x="76" y="130.0386">USDCWETH</text><ellipse cx="18" cy="139.6328" fill="none" rx="3" ry="3" style="stroke: #038048; stroke-width: 1.0;"/><a href="IUniswapV2Factory" target="_top" title="IUniswapV2Factory" xlink:actuate="onRequest" xlink:href="IUniswapV2Factory" xlink:show="new" xlink:title="IUniswapV2Factory" xlink:type="simple"><text fill="#0000FF" font-family="sans-serif" font-size="11" lengthAdjust="spacingAndGlyphs" text-decoration="underline" textLength="106" x="27" y="142.8433">IUniswapV2Factory</text></a><text fill="#000000" font-family="sans-serif" font-size="11" lengthAdjust="spacingAndGlyphs" textLength="87" x="137" y="142.8433">uniswapFactory</text><line style="stroke: #A80036; stroke-width: 1.5;" x1="8" x2="229" y1="149.4375" y2="149.4375"/><ellipse cx="18" cy="160.4375" fill="#84BE84" rx="3" ry="3" style="stroke: #038048; stroke-width: 1.0;"/><text fill="#000000" font-family="sans-serif" font-size="11" font-weight="bold" lengthAdjust="spacingAndGlyphs" textLength="105" x="27" y="163.6479">__constructor__</text><text fill="#000000" font-family="sans-serif" font-size="11" lengthAdjust="spacingAndGlyphs" textLength="8" x="132" y="163.6479">()</text><ellipse cx="18" cy="173.2422" fill="#84BE84" rx="3" ry="3" style="stroke: #038048; stroke-width: 1.0;"/><text fill="#000000" font-family="sans-serif" font-size="11" lengthAdjust="spacingAndGlyphs" textLength="86" x="27" y="176.4526">&#128269;tokenToUsd()</text><ellipse cx="18" cy="186.0469" fill="#84BE84" rx="3" ry="3" style="stroke: #038048; stroke-width: 1.0;"/><text fill="#000000" font-family="sans-serif" font-size="11" lengthAdjust="spacingAndGlyphs" textLength="88" x="27" y="189.2573">&#128269;usdToToken()</text><ellipse cx="18" cy="198.8516" fill="#84BE84" rx="3" ry="3" style="stroke: #038048; stroke-width: 1.0;"/><text fill="#000000" font-family="sans-serif" font-size="11" lengthAdjust="spacingAndGlyphs" textLength="59" x="27" y="202.062">&#128269;ethUsd()</text><!--MD5=[11730a402df8153eb5160cb7d4f37d92]
class SafeMath--><rect fill="#FEFECE" filter="url(#f1rlyufrpichy)" height="48" id="SafeMath" style="stroke: #A80036; stroke-width: 1.5;" width="87" x="75" y="286"/><ellipse cx="90" cy="302" fill="#ADD1B2" rx="11" ry="11" style="stroke: #A80036; stroke-width: 1.0;"/><path d="M92.3438,297.6719 C91.4063,297.2344 90.8125,297.0938 89.9375,297.0938 C87.3125,297.0938 85.3125,299.1719 85.3125,301.8906 L85.3125,303.0156 C85.3125,305.5938 87.4219,307.4844 90.3125,307.4844 C91.5313,307.4844 92.6875,307.1875 93.4375,306.6406 C94.0156,306.2344 94.3438,305.7813 94.3438,305.3906 C94.3438,304.9375 93.9531,304.5469 93.4844,304.5469 C93.2656,304.5469 93.0625,304.625 92.875,304.8125 C92.4219,305.2969 92.4219,305.2969 92.2344,305.3906 C91.8125,305.6563 91.125,305.7813 90.3594,305.7813 C88.3125,305.7813 87.0156,304.6875 87.0156,302.9844 L87.0156,301.8906 C87.0156,300.1094 88.2656,298.7969 90,298.7969 C90.5781,298.7969 91.1875,298.9531 91.6563,299.2031 C92.1406,299.4844 92.3125,299.7031 92.4063,300.1094 C92.4688,300.5156 92.5,300.6406 92.6406,300.7656 C92.7813,300.9063 93.0156,301.0156 93.2344,301.0156 C93.5,301.0156 93.7656,300.875 93.9375,300.6563 C94.0469,300.5 94.0781,300.3125 94.0781,299.8906 L94.0781,298.4688 C94.0781,298.0313 94.0625,297.9063 93.9688,297.75 C93.8125,297.4844 93.5313,297.3438 93.2344,297.3438 C92.9375,297.3438 92.7344,297.4375 92.5156,297.75 L92.3438,297.6719 Z "/><text fill="#000000" font-family="sans-serif" font-size="12" lengthAdjust="spacingAndGlyphs" textLength="55" x="104" y="306.1543">SafeMath</text><line style="stroke: #A80036; stroke-width: 1.5;" x1="76" x2="161" y1="318" y2="318"/><line style="stroke: #A80036; stroke-width: 1.5;" x1="76" x2="161" y1="326" y2="326"/><!--MD5=[6a2f8c5aa35e93634000a96dc435db5d]
link UniswapOracle to SafeMath--><path codeLine="31" d="M118.5,209.293 C118.5,229.105 118.5,248.9018 118.5,265.5725 " fill="none" id="UniswapOracle-&gt;SafeMath" style="stroke: #556B2F; stroke-width: 1.0; stroke-dasharray: 7.0,7.0;"/><polygon fill="none" points="125.5,265.7496,118.5,285.7496,111.5,265.7496,125.5,265.7496" style="stroke: #556B2F; stroke-width: 1.0;"/><text fill="#000000" font-family="sans-serif" font-size="13" font-style="italic" lengthAdjust="spacingAndGlyphs" textLength="47" x="119.5" y="252.0669">for uint</text><!--MD5=[fc2f5cbccfec94c6d836829f7f19929f]
@startuml
' - - for auto-render install: https://marketplace.visualstudio.com/items?itemName=jebbs.plantuml
' - - options - -



' - - classes - -


class UniswapOracle {
    ' - - inheritance - -

    ' - - usingFor - -
	{abstract}ðŸ“šSafeMath for [[uint]]

    ' - - vars - -
	+[[address]] DAI
	+[[address]] USDC
	+[[address]] WETH
	+[[address]] DAIWETH
	+[[address]] USDCWETH
	+[[IUniswapV2Factory]] uniswapFactory

    ' - - methods - -
	+**__constructor__**()
	+ðŸ”tokenToUsd()
	+ðŸ”usdToToken()
	+ðŸ”ethUsd()

}
' - - inheritance / usingFor - -
UniswapOracle ..[#DarkOliveGreen]|> SafeMath : //for uint//
@enduml

@startuml





class UniswapOracle {

	{abstract}ðŸ“šSafeMath for [[uint]]

	+[[address]] DAI
	+[[address]] USDC
	+[[address]] WETH
	+[[address]] DAIWETH
	+[[address]] USDCWETH
	+[[IUniswapV2Factory]] uniswapFactory

	+**__constructor__**()
	+ðŸ”tokenToUsd()
	+ðŸ”usdToToken()
	+ðŸ”ethUsd()

}
UniswapOracle ..[#DarkOliveGreen]|> SafeMath : //for uint//
@enduml

PlantUML version 1.2020.16beta7(Unknown compile time)
(GPL source distribution)
Java Runtime: Java(TM) SE Runtime Environment
JVM: Java HotSpot(TM) 64-Bit Server VM
Default Encoding: UTF-8
Language: en
Country: US
--></g></svg>