<?xml version="1.0" encoding="UTF-8" standalone="no"?><svg xmlns="http://www.w3.org/2000/svg" xmlns:xlink="http://www.w3.org/1999/xlink" contentScriptType="application/ecmascript" contentStyleType="text/css" height="99px" preserveAspectRatio="none" style="width:115px;height:99px;" version="1.1" viewBox="0 0 115 99" width="115px" zoomAndPan="magnify"><defs><filter height="300%" id="fumueephepakk" width="300%" x="-1" y="-1"><feGaussianBlur result="blurOut" stdDeviation="2.0"/><feColorMatrix in="blurOut" result="blurOut2" type="matrix" values="0 0 0 0 0 0 0 0 0 0 0 0 0 0 0 0 0 0 .4 0"/><feOffset dx="4.0" dy="4.0" in="blurOut2" result="blurOut3"/><feBlend in="SourceGraphic" in2="blurOut3" mode="normal"/></filter></defs><g><!--MD5=[afd9eea47f041adbd1db2664706126cd]
class USDPLike--><rect codeLine="9" fill="#FEFECE" filter="url(#fumueephepakk)" height="73.6094" id="USDPLike" style="stroke: #A80036; stroke-width: 1.5;" width="89" x="7" y="7"/><ellipse cx="22" cy="23" fill="#B4A7E5" rx="11" ry="11" style="stroke: #A80036; stroke-width: 1.0;"/><path d="M22.9531,19.7813 L24.6719,19.7813 C25.0625,19.7813 25.25,19.75 25.375,19.6719 C25.6406,19.5156 25.7813,19.2344 25.7813,18.9375 C25.7813,18.6719 25.6719,18.4063 25.4375,18.2344 C25.2656,18.125 25.125,18.0938 24.6719,18.0938 L19.5313,18.0938 C19.0938,18.0938 18.9688,18.1094 18.8125,18.2031 C18.5625,18.3594 18.4063,18.6563 18.4063,18.9375 C18.4063,19.2188 18.5469,19.4688 18.7656,19.6406 C18.9219,19.75 19.1094,19.7813 19.5313,19.7813 L21.25,19.7813 L21.25,26.2969 L19.5313,26.2969 C19.0938,26.2969 18.9688,26.3125 18.8125,26.4219 C18.5625,26.5781 18.4063,26.8594 18.4063,27.1563 C18.4063,27.4063 18.5469,27.6719 18.7656,27.8281 C18.9219,27.9531 19.125,28 19.5313,28 L24.6719,28 C25.4219,28 25.7813,27.7188 25.7813,27.1563 C25.7813,26.875 25.6719,26.625 25.4375,26.4531 C25.2656,26.3281 25.125,26.2969 24.6719,26.2969 L22.9531,26.2969 L22.9531,19.7813 Z "/><text fill="#000000" font-family="sans-serif" font-size="12" font-style="italic" lengthAdjust="spacingAndGlyphs" textLength="57" x="36" y="27.1543">USDPLike</text><line style="stroke: #A80036; stroke-width: 1.5;" x1="8" x2="95" y1="39" y2="39"/><line style="stroke: #A80036; stroke-width: 1.5;" x1="8" x2="95" y1="47" y2="47"/><ellipse cx="18" cy="58" fill="#84BE84" rx="3" ry="3" style="stroke: #038048; stroke-width: 1.0;"/><text fill="#000000" font-family="sans-serif" font-size="11" lengthAdjust="spacingAndGlyphs" textLength="33" x="27" y="61.2104">mint()</text><ellipse cx="18" cy="70.8047" fill="#84BE84" rx="3" ry="3" style="stroke: #038048; stroke-width: 1.0;"/><text fill="#000000" font-family="sans-serif" font-size="11" lengthAdjust="spacingAndGlyphs" textLength="33" x="27" y="74.0151">burn()</text><!--MD5=[2155e1377e26dbffee10adb593047098]
@startuml
' - - for auto-render install: https://marketplace.visualstudio.com/items?itemName=jebbs.plantuml
' - - options - -



' - - classes - -


interface USDPLike {
    ' - - inheritance - -

    ' - - usingFor - -

    ' - - vars - -

    ' - - methods - -
	+mint()
	+burn()

}
' - - inheritance / usingFor - -
@enduml

@startuml





interface USDPLike {



	+mint()
	+burn()

}
@enduml

PlantUML version 1.2020.16beta7(Unknown compile time)
(GPL source distribution)
Java Runtime: Java(TM) SE Runtime Environment
JVM: Java HotSpot(TM) 64-Bit Server VM
Default Encoding: UTF-8
Language: en
Country: US
--></g></svg>