<?xml version="1.0" encoding="UTF-8" standalone="no"?><svg xmlns="http://www.w3.org/2000/svg" xmlns:xlink="http://www.w3.org/1999/xlink" contentScriptType="application/ecmascript" contentStyleType="text/css" height="468px" preserveAspectRatio="none" style="width:315px;height:468px;" version="1.1" viewBox="0 0 315 468" width="315px" zoomAndPan="magnify"><defs><filter height="300%" id="fhkb88ot66hjc" width="300%" x="-1" y="-1"><feGaussianBlur result="blurOut" stdDeviation="2.0"/><feColorMatrix in="blurOut" result="blurOut2" type="matrix" values="0 0 0 0 0 0 0 0 0 0 0 0 0 0 0 0 0 0 .4 0"/><feOffset dx="4.0" dy="4.0" in="blurOut2" result="blurOut3"/><feBlend in="SourceGraphic" in2="blurOut3" mode="normal"/></filter></defs><g><!--MD5=[f2983403e58b9180660d68987c559f47]
class USDP--><rect codeLine="9" fill="#FEFECE" filter="url(#fhkb88ot66hjc)" height="316.8984" id="USDP" style="stroke: #A80036; stroke-width: 1.5;" width="287" x="9" y="7"/><ellipse cx="132.25" cy="23" fill="#ADD1B2" rx="11" ry="11" style="stroke: #A80036; stroke-width: 1.0;"/><path d="M134.5938,18.6719 C133.6563,18.2344 133.0625,18.0938 132.1875,18.0938 C129.5625,18.0938 127.5625,20.1719 127.5625,22.8906 L127.5625,24.0156 C127.5625,26.5938 129.6719,28.4844 132.5625,28.4844 C133.7813,28.4844 134.9375,28.1875 135.6875,27.6406 C136.2656,27.2344 136.5938,26.7813 136.5938,26.3906 C136.5938,25.9375 136.2031,25.5469 135.7344,25.5469 C135.5156,25.5469 135.3125,25.625 135.125,25.8125 C134.6719,26.2969 134.6719,26.2969 134.4844,26.3906 C134.0625,26.6563 133.375,26.7813 132.6094,26.7813 C130.5625,26.7813 129.2656,25.6875 129.2656,23.9844 L129.2656,22.8906 C129.2656,21.1094 130.5156,19.7969 132.25,19.7969 C132.8281,19.7969 133.4375,19.9531 133.9063,20.2031 C134.3906,20.4844 134.5625,20.7031 134.6563,21.1094 C134.7188,21.5156 134.75,21.6406 134.8906,21.7656 C135.0313,21.9063 135.2656,22.0156 135.4844,22.0156 C135.75,22.0156 136.0156,21.875 136.1875,21.6563 C136.2969,21.5 136.3281,21.3125 136.3281,20.8906 L136.3281,19.4688 C136.3281,19.0313 136.3125,18.9063 136.2188,18.75 C136.0625,18.4844 135.7813,18.3438 135.4844,18.3438 C135.1875,18.3438 134.9844,18.4375 134.7656,18.75 L134.5938,18.6719 Z "/><text fill="#000000" font-family="sans-serif" font-size="12" lengthAdjust="spacingAndGlyphs" textLength="32" x="152.75" y="27.1543">USDP</text><line style="stroke: #A80036; stroke-width: 1.5;" x1="10" x2="295" y1="39" y2="39"/><text fill="#000000" font-family="sans-serif" font-size="11" font-style="italic" lengthAdjust="spacingAndGlyphs" textLength="26" x="29" y="53.2104">Auth</text><text fill="#000000" font-family="sans-serif" font-size="11" lengthAdjust="spacingAndGlyphs" textLength="0" x="33" y="66.0151"/><text fill="#000000" font-family="sans-serif" font-size="11" font-style="italic" lengthAdjust="spacingAndGlyphs" textLength="83" x="29" y="78.8198">&#128218;SafeMath for</text><a href="uint" target="_top" title="uint" xlink:actuate="onRequest" xlink:href="uint" xlink:show="new" xlink:title="uint" xlink:type="simple"><text fill="#0000FF" font-family="sans-serif" font-size="11" font-style="italic" lengthAdjust="spacingAndGlyphs" text-decoration="underline" textLength="21" x="116" y="78.8198">uint</text></a><text fill="#000000" font-family="sans-serif" font-size="11" lengthAdjust="spacingAndGlyphs" textLength="0" x="33" y="91.6245"/><ellipse cx="20" cy="101.2188" fill="none" rx="3" ry="3" style="stroke: #038048; stroke-width: 1.0;"/><a href="string" target="_top" title="string" xlink:actuate="onRequest" xlink:href="string" xlink:show="new" xlink:title="string" xlink:type="simple"><text fill="#0000FF" font-family="sans-serif" font-size="11" lengthAdjust="spacingAndGlyphs" text-decoration="underline" textLength="31" x="29" y="104.4292">string</text></a><text fill="#000000" font-family="sans-serif" font-size="11" lengthAdjust="spacingAndGlyphs" text-decoration="underline" textLength="33" x="64" y="104.4292">name</text><ellipse cx="20" cy="114.0234" fill="none" rx="3" ry="3" style="stroke: #038048; stroke-width: 1.0;"/><a href="string" target="_top" title="string" xlink:actuate="onRequest" xlink:href="string" xlink:show="new" xlink:title="string" xlink:type="simple"><text fill="#0000FF" font-family="sans-serif" font-size="11" lengthAdjust="spacingAndGlyphs" text-decoration="underline" textLength="31" x="29" y="117.2339">string</text></a><text fill="#000000" font-family="sans-serif" font-size="11" lengthAdjust="spacingAndGlyphs" text-decoration="underline" textLength="41" x="64" y="117.2339">symbol</text><ellipse cx="20" cy="126.8281" fill="none" rx="3" ry="3" style="stroke: #038048; stroke-width: 1.0;"/><a href="string" target="_top" title="string" xlink:actuate="onRequest" xlink:href="string" xlink:show="new" xlink:title="string" xlink:type="simple"><text fill="#0000FF" font-family="sans-serif" font-size="11" lengthAdjust="spacingAndGlyphs" text-decoration="underline" textLength="31" x="29" y="130.0386">string</text></a><text fill="#000000" font-family="sans-serif" font-size="11" lengthAdjust="spacingAndGlyphs" text-decoration="underline" textLength="42" x="64" y="130.0386">version</text><ellipse cx="20" cy="139.6328" fill="none" rx="3" ry="3" style="stroke: #038048; stroke-width: 1.0;"/><a href="uint8" target="_top" title="uint8" xlink:actuate="onRequest" xlink:href="uint8" xlink:show="new" xlink:title="uint8" xlink:type="simple"><text fill="#0000FF" font-family="sans-serif" font-size="11" lengthAdjust="spacingAndGlyphs" text-decoration="underline" textLength="28" x="29" y="142.8433">uint8</text></a><text fill="#000000" font-family="sans-serif" font-size="11" lengthAdjust="spacingAndGlyphs" text-decoration="underline" textLength="51" x="61" y="142.8433">decimals</text><ellipse cx="20" cy="152.4375" fill="none" rx="3" ry="3" style="stroke: #038048; stroke-width: 1.0;"/><a href="uint" target="_top" title="uint" xlink:actuate="onRequest" xlink:href="uint" xlink:show="new" xlink:title="uint" xlink:type="simple"><text fill="#0000FF" font-family="sans-serif" font-size="11" lengthAdjust="spacingAndGlyphs" text-decoration="underline" textLength="21" x="29" y="155.6479">uint</text></a><text fill="#000000" font-family="sans-serif" font-size="11" lengthAdjust="spacingAndGlyphs" textLength="64" x="54" y="155.6479">totalSupply</text><ellipse cx="20" cy="165.2422" fill="none" rx="3" ry="3" style="stroke: #038048; stroke-width: 1.0;"/><a href="mapping" target="_top" title="mapping" xlink:actuate="onRequest" xlink:href="mapping" xlink:show="new" xlink:title="mapping" xlink:type="simple"><text fill="#0000FF" font-family="sans-serif" font-size="11" lengthAdjust="spacingAndGlyphs" text-decoration="underline" textLength="84" x="29" y="168.4526">address=&gt;uint</text></a><text fill="#000000" font-family="sans-serif" font-size="11" lengthAdjust="spacingAndGlyphs" textLength="58" x="117" y="168.4526">balanceOf</text><ellipse cx="20" cy="178.0469" fill="none" rx="3" ry="3" style="stroke: #038048; stroke-width: 1.0;"/><a href="mapping" target="_top" title="mapping" xlink:actuate="onRequest" xlink:href="mapping" xlink:show="new" xlink:title="mapping" xlink:type="simple"><text fill="#0000FF" font-family="sans-serif" font-size="11" lengthAdjust="spacingAndGlyphs" text-decoration="underline" textLength="200" x="29" y="181.2573">address=&gt;mapping address=&gt;uint</text></a><text fill="#000000" font-family="sans-serif" font-size="11" lengthAdjust="spacingAndGlyphs" textLength="57" x="233" y="181.2573">allowance</text><line style="stroke: #A80036; stroke-width: 1.5;" x1="10" x2="295" y1="187.8516" y2="187.8516"/><ellipse cx="20" cy="198.8516" fill="#84BE84" rx="3" ry="3" style="stroke: #038048; stroke-width: 1.0;"/><text fill="#000000" font-family="sans-serif" font-size="11" font-weight="bold" lengthAdjust="spacingAndGlyphs" textLength="105" x="29" y="202.062">__constructor__</text><text fill="#000000" font-family="sans-serif" font-size="11" lengthAdjust="spacingAndGlyphs" textLength="8" x="134" y="202.062">()</text><ellipse cx="20" cy="211.6563" fill="#84BE84" rx="3" ry="3" style="stroke: #038048; stroke-width: 1.0;"/><text fill="#000000" font-family="sans-serif" font-size="11" lengthAdjust="spacingAndGlyphs" textLength="33" x="29" y="214.8667">mint()</text><ellipse cx="20" cy="224.4609" fill="#84BE84" rx="3" ry="3" style="stroke: #038048; stroke-width: 1.0;"/><text fill="#000000" font-family="sans-serif" font-size="11" lengthAdjust="spacingAndGlyphs" textLength="33" x="29" y="227.6714">burn()</text><ellipse cx="20" cy="237.2656" fill="#84BE84" rx="3" ry="3" style="stroke: #038048; stroke-width: 1.0;"/><text fill="#000000" font-family="sans-serif" font-size="11" lengthAdjust="spacingAndGlyphs" textLength="52" x="29" y="240.4761">transfer()</text><ellipse cx="20" cy="250.0703" fill="#84BE84" rx="3" ry="3" style="stroke: #038048; stroke-width: 1.0;"/><text fill="#000000" font-family="sans-serif" font-size="11" lengthAdjust="spacingAndGlyphs" textLength="80" x="29" y="253.2808">transferFrom()</text><ellipse cx="20" cy="262.875" fill="#84BE84" rx="3" ry="3" style="stroke: #038048; stroke-width: 1.0;"/><text fill="#000000" font-family="sans-serif" font-size="11" lengthAdjust="spacingAndGlyphs" textLength="55" x="29" y="266.0854">approve()</text><ellipse cx="20" cy="275.6797" fill="#84BE84" rx="3" ry="3" style="stroke: #038048; stroke-width: 1.0;"/><text fill="#000000" font-family="sans-serif" font-size="11" lengthAdjust="spacingAndGlyphs" textLength="115" x="29" y="278.8901">increaseAllowance()</text><ellipse cx="20" cy="288.4844" fill="#84BE84" rx="3" ry="3" style="stroke: #038048; stroke-width: 1.0;"/><text fill="#000000" font-family="sans-serif" font-size="11" lengthAdjust="spacingAndGlyphs" textLength="120" x="29" y="291.6948">decreaseAllowance()</text><polygon fill="#FFFF44" points="20,296.2891,24,300.2891,20,304.2891,16,300.2891" style="stroke: #B38D22; stroke-width: 1.0;"/><text fill="#000000" font-family="sans-serif" font-size="11" lengthAdjust="spacingAndGlyphs" textLength="61" x="29" y="304.4995">_approve()</text><polygon fill="#FFFF44" points="20,309.0938,24,313.0938,20,317.0938,16,313.0938" style="stroke: #B38D22; stroke-width: 1.0;"/><text fill="#000000" font-family="sans-serif" font-size="11" lengthAdjust="spacingAndGlyphs" textLength="39" x="29" y="317.3042">_burn()</text><!--MD5=[2b8367ee8a196632b51868e08daef08d]
class Auth--><rect fill="#FEFECE" filter="url(#fhkb88ot66hjc)" height="48" id="Auth" style="stroke: #A80036; stroke-width: 1.5;" width="58" x="69.5" y="401"/><ellipse cx="84.5" cy="417" fill="#ADD1B2" rx="11" ry="11" style="stroke: #A80036; stroke-width: 1.0;"/><path d="M86.8438,412.6719 C85.9063,412.2344 85.3125,412.0938 84.4375,412.0938 C81.8125,412.0938 79.8125,414.1719 79.8125,416.8906 L79.8125,418.0156 C79.8125,420.5938 81.9219,422.4844 84.8125,422.4844 C86.0313,422.4844 87.1875,422.1875 87.9375,421.6406 C88.5156,421.2344 88.8438,420.7813 88.8438,420.3906 C88.8438,419.9375 88.4531,419.5469 87.9844,419.5469 C87.7656,419.5469 87.5625,419.625 87.375,419.8125 C86.9219,420.2969 86.9219,420.2969 86.7344,420.3906 C86.3125,420.6563 85.625,420.7813 84.8594,420.7813 C82.8125,420.7813 81.5156,419.6875 81.5156,417.9844 L81.5156,416.8906 C81.5156,415.1094 82.7656,413.7969 84.5,413.7969 C85.0781,413.7969 85.6875,413.9531 86.1563,414.2031 C86.6406,414.4844 86.8125,414.7031 86.9063,415.1094 C86.9688,415.5156 87,415.6406 87.1406,415.7656 C87.2813,415.9063 87.5156,416.0156 87.7344,416.0156 C88,416.0156 88.2656,415.875 88.4375,415.6563 C88.5469,415.5 88.5781,415.3125 88.5781,414.8906 L88.5781,413.4688 C88.5781,413.0313 88.5625,412.9063 88.4688,412.75 C88.3125,412.4844 88.0313,412.3438 87.7344,412.3438 C87.4375,412.3438 87.2344,412.4375 87.0156,412.75 L86.8438,412.6719 Z "/><text fill="#000000" font-family="sans-serif" font-size="12" lengthAdjust="spacingAndGlyphs" textLength="26" x="98.5" y="421.1543">Auth</text><line style="stroke: #A80036; stroke-width: 1.5;" x1="70.5" x2="126.5" y1="433" y2="433"/><line style="stroke: #A80036; stroke-width: 1.5;" x1="70.5" x2="126.5" y1="441" y2="441"/><!--MD5=[11730a402df8153eb5160cb7d4f37d92]
class SafeMath--><rect fill="#FEFECE" filter="url(#fhkb88ot66hjc)" height="48" id="SafeMath" style="stroke: #A80036; stroke-width: 1.5;" width="87" x="163" y="401"/><ellipse cx="178" cy="417" fill="#ADD1B2" rx="11" ry="11" style="stroke: #A80036; stroke-width: 1.0;"/><path d="M180.3438,412.6719 C179.4063,412.2344 178.8125,412.0938 177.9375,412.0938 C175.3125,412.0938 173.3125,414.1719 173.3125,416.8906 L173.3125,418.0156 C173.3125,420.5938 175.4219,422.4844 178.3125,422.4844 C179.5313,422.4844 180.6875,422.1875 181.4375,421.6406 C182.0156,421.2344 182.3438,420.7813 182.3438,420.3906 C182.3438,419.9375 181.9531,419.5469 181.4844,419.5469 C181.2656,419.5469 181.0625,419.625 180.875,419.8125 C180.4219,420.2969 180.4219,420.2969 180.2344,420.3906 C179.8125,420.6563 179.125,420.7813 178.3594,420.7813 C176.3125,420.7813 175.0156,419.6875 175.0156,417.9844 L175.0156,416.8906 C175.0156,415.1094 176.2656,413.7969 178,413.7969 C178.5781,413.7969 179.1875,413.9531 179.6563,414.2031 C180.1406,414.4844 180.3125,414.7031 180.4063,415.1094 C180.4688,415.5156 180.5,415.6406 180.6406,415.7656 C180.7813,415.9063 181.0156,416.0156 181.2344,416.0156 C181.5,416.0156 181.7656,415.875 181.9375,415.6563 C182.0469,415.5 182.0781,415.3125 182.0781,414.8906 L182.0781,413.4688 C182.0781,413.0313 182.0625,412.9063 181.9688,412.75 C181.8125,412.4844 181.5313,412.3438 181.2344,412.3438 C180.9375,412.3438 180.7344,412.4375 180.5156,412.75 L180.3438,412.6719 Z "/><text fill="#000000" font-family="sans-serif" font-size="12" lengthAdjust="spacingAndGlyphs" textLength="55" x="192" y="421.1543">SafeMath</text><line style="stroke: #A80036; stroke-width: 1.5;" x1="164" x2="249" y1="433" y2="433"/><line style="stroke: #A80036; stroke-width: 1.5;" x1="164" x2="249" y1="441" y2="441"/><!--MD5=[f0d713a05cb277c1fcf557c2fa7f8dc2]
link USDP to Auth--><path codeLine="39" d="M119.455,324.075 C115.095,344.865 110.957,364.5984 107.5275,380.9521 " fill="none" id="USDP-&gt;Auth" style="stroke: #B8860B; stroke-width: 1.0;"/><polygon fill="none" points="114.358,382.4857,103.4023,400.6231,100.6563,379.6122,114.358,382.4857" style="stroke: #B8860B; stroke-width: 1.0;"/><!--MD5=[f09785c2d2e739cadc299f73f0abaa41]
link USDP to SafeMath--><path codeLine="40" d="M185.545,324.075 C189.905,344.865 194.043,364.5984 197.472,380.9521 " fill="none" id="USDP-&gt;SafeMath" style="stroke: #556B2F; stroke-width: 1.0; stroke-dasharray: 7.0,7.0;"/><polygon fill="none" points="204.344,379.6122,201.598,400.6231,190.642,382.4857,204.344,379.6122" style="stroke: #556B2F; stroke-width: 1.0;"/><text fill="#000000" font-family="sans-serif" font-size="13" font-style="italic" lengthAdjust="spacingAndGlyphs" textLength="47" x="196.5" y="367.0669">for uint</text><!--MD5=[bbc65401573ba17fe8b32a688f7f6afc]
@startuml
' - - for auto-render install: https://marketplace.visualstudio.com/items?itemName=jebbs.plantuml
' - - options - -



' - - classes - -


class USDP {
    ' - - inheritance - -
	{abstract}Auth

    ' - - usingFor - -
	{abstract}📚SafeMath for [[uint]]

    ' - - vars - -
	+{static}[[string]] name
	+{static}[[string]] symbol
	+{static}[[string]] version
	+{static}[[uint8]] decimals
	+[[uint]] totalSupply
	+[[mapping address=>uint ]] balanceOf
	+[[mapping address=>mapping address=>uint  ]] allowance

    ' - - methods - -
	+**__constructor__**()
	+mint()
	+burn()
	+transfer()
	+transferFrom()
	+approve()
	+increaseAllowance()
	+decreaseAllowance()
	#_approve()
	#_burn()

}
' - - inheritance / usingFor - -
USDP - -[#DarkGoldenRod]|> Auth
USDP ..[#DarkOliveGreen]|> SafeMath : //for uint//
@enduml

@startuml





class USDP {
	{abstract}Auth

	{abstract}📚SafeMath for [[uint]]

	+{static}[[string]] name
	+{static}[[string]] symbol
	+{static}[[string]] version
	+{static}[[uint8]] decimals
	+[[uint]] totalSupply
	+[[mapping address=>uint ]] balanceOf
	+[[mapping address=>mapping address=>uint  ]] allowance

	+**__constructor__**()
	+mint()
	+burn()
	+transfer()
	+transferFrom()
	+approve()
	+increaseAllowance()
	+decreaseAllowance()
	#_approve()
	#_burn()

}
USDP - -[#DarkGoldenRod]|> Auth
USDP ..[#DarkOliveGreen]|> SafeMath : //for uint//
@enduml

PlantUML version 1.2020.16beta7(Unknown compile time)
(GPL source distribution)
Java Runtime: Java(TM) SE Runtime Environment
JVM: Java HotSpot(TM) 64-Bit Server VM
Default Encoding: UTF-8
Language: en
Country: US
--></g></svg>